<svg xmlns="http://www.w3.org/2000/svg" xmlns:xlink="http://www.w3.org/1999/xlink" viewBox="0 0 595.28 4782.96"><defs><linearGradient id="a" x1="271.64" y1="965.7" x2="271.64" y2="3200.19" gradientUnits="userSpaceOnUse"><stop offset="0" stop-color="#f0f0f0"/><stop offset="0.66" stop-color="#f2f2f2"/><stop offset="0.89" stop-color="#f9f9f9"/><stop offset="1" stop-color="#fff"/></linearGradient><linearGradient id="b" x1="297.64" y1="182.27" x2="297.64" y2="824.8" gradientUnits="userSpaceOnUse"><stop offset="0.59" stop-color="#f0f0f0"/><stop offset="0.84" stop-color="#f2f2f2"/><stop offset="0.95" stop-color="#f9f9f9"/><stop offset="1" stop-color="#fff"/></linearGradient><linearGradient id="c" x1="232.49" y1="668.94" x2="232.49" y2="204.09" gradientUnits="userSpaceOnUse"><stop offset="0" stop-color="#111"/><stop offset="0.09" stop-color="#111"/><stop offset="0.11" stop-color="#2a2a2a"/><stop offset="0.15" stop-color="#535353"/><stop offset="0.2" stop-color="#797979"/><stop offset="0.25" stop-color="#999"/><stop offset="0.3" stop-color="#b5b5b5"/><stop offset="0.36" stop-color="#cbcbcb"/><stop offset="0.44" stop-color="#dcdcdc"/><stop offset="0.53" stop-color="#e7e7e7"/><stop offset="0.65" stop-color="#eee"/><stop offset="1" stop-color="#f0f0f0"/></linearGradient><linearGradient id="d" x1="305.99" y1="669.19" x2="305.99" y2="203.84" gradientUnits="userSpaceOnUse"><stop offset="0" stop-color="#6d8c4d"/><stop offset="0.18" stop-color="#5c806d"/><stop offset="0.37" stop-color="#4e7686"/><stop offset="0.56" stop-color="#456f98"/><stop offset="0.77" stop-color="#3f6ba3"/><stop offset="1" stop-color="#3d6aa6"/></linearGradient><linearGradient id="e" x1="305.13" y1="3540" x2="305.13" y2="825.8" gradientUnits="userSpaceOnUse"><stop offset="0" stop-color="#fff"/><stop offset="0.18" stop-color="#efc30e"/><stop offset="0.34" stop-color="#efd20e"/><stop offset="0.41" stop-color="#eacf11"/><stop offset="0.49" stop-color="#dbc718"/><stop offset="0.58" stop-color="#c1b924"/><stop offset="0.68" stop-color="#9fa735"/><stop offset="0.78" stop-color="#728f4b"/><stop offset="0.79" stop-color="#6d8c4d"/><stop offset="0.88" stop-color="#6c8b4f"/><stop offset="0.92" stop-color="#688956"/><stop offset="0.95" stop-color="#628461"/><stop offset="0.97" stop-color="#597e72"/><stop offset="0.98" stop-color="#4d7588"/><stop offset="1" stop-color="#3f6ba3"/><stop offset="1" stop-color="#3d6aa6"/></linearGradient></defs><title>hdep-timeline</title><image width="620" height="1798" transform="translate(-0.24 3057.77) scale(0.96)" xlink:href="milky-way-2341762-edit.jpg"/><rect x="263.78" y="832.24" width="15.72" height="23.71" style="fill:#111"/><rect x="263.78" y="855.95" width="15.72" height="109.75" style="fill:#474747"/><rect x="263.78" y="965.7" width="15.72" height="2234.49" style="stroke:#474747;stroke-miterlimit:10;fill:url(#a)"/><polygon points="31.6 673.12 31.6 182.27 563.67 182.27 563.67 673.12 317.8 824.8 277.48 824.8 31.6 673.12" style="stroke:#474747;stroke-linejoin:round;stroke-width:2px;fill:url(#b)"/><rect x="220.88" y="204.09" width="23.22" height="464.85" style="fill:url(#c)"/><path d="M243.85,204.34V668.69H221.13V204.34h22.72m.5-.5H220.63V669.19h23.72V203.84Z" style="fill:#474747"/><line x1="429.89" y1="755.65" x2="375.27" y2="789.34" style="fill:#f0f0f0"/><line x1="429.89" y1="755.65" x2="390.35" y2="780.04" style="fill:none;stroke:#474747;stroke-linejoin:round;stroke-width:2px"/><polygon points="390.68 773.01 375.27 789.34 396.78 782.9 390.68 773.01" style="fill:#474747"/><rect x="241.25" y="203.84" width="129.49" height="465.35" style="fill:url(#d)"/><rect x="278.77" y="825.8" width="52.72" height="2714.21" style="fill:url(#e)"/><line x1="203.77" y1="1578.18" x2="173.33" y2="1578.18" style="fill:none;stroke:#222221;stroke-miterlimit:10"/><line x1="203.77" y1="824.08" x2="173.33" y2="824.08" style="fill:none;stroke:#222221;stroke-miterlimit:10"/><line x1="263.78" y1="844.09" x2="210.37" y2="844.09" style="fill:none;stroke:#222221;stroke-miterlimit:10"/><line x1="263.78" y1="910.82" x2="212.09" y2="910.82" style="fill:none;stroke:#222221;stroke-miterlimit:10"/><line x1="220.63" y1="657.52" x2="168.93" y2="657.52" style="fill:none;stroke:#222221;stroke-miterlimit:10"/><line x1="263.78" y1="1009.45" x2="212.09" y2="1009.45" style="fill:none;stroke:#222221;stroke-miterlimit:10"/><line x1="203.77" y1="2325.52" x2="173.33" y2="2325.52" style="fill:none;stroke:#222221;stroke-miterlimit:10"/><line x1="203.77" y1="3077.56" x2="173.33" y2="3077.56" style="fill:none;stroke:#222221;stroke-miterlimit:10"/><line x1="297.64" y1="3835.96" x2="297.64" y2="3787.96" style="fill:none;stroke:#111;stroke-miterlimit:10;stroke-width:40px"/><polygon points="337.52 3824.29 297.64 3893.36 257.75 3824.29 337.52 3824.29" style="fill:#111"/><line x1="297.64" y1="3607.52" x2="297.64" y2="3559.52" style="fill:none;stroke:#111;stroke-miterlimit:10;stroke-width:40px"/><polygon points="337.52 3595.85 297.64 3664.93 257.75 3595.85 337.52 3595.85" style="fill:#111"/><line x1="297.64" y1="4064.39" x2="297.64" y2="4016.4" style="fill:none;stroke:#111;stroke-miterlimit:10;stroke-width:40px"/><polygon points="337.52 4052.72 297.64 4121.8 257.75 4052.72 337.52 4052.72" style="fill:#111"/><line x1="297.64" y1="4292.83" x2="297.64" y2="4244.84" style="fill:none;stroke:#111;stroke-miterlimit:10;stroke-width:40px"/><polygon points="337.52 4281.16 297.64 4350.24 257.75 4281.16 337.52 4281.16" style="fill:#111"/><line x1="324.8" y1="2376.35" x2="370.82" y2="2376.35" style="fill:none;stroke:#222221;stroke-miterlimit:10"/><path d="M324.89,2378.23a1.88,1.88,0,1,1,1.88-1.88A1.88,1.88,0,0,1,324.89,2378.23Z" style="fill:#222221"/><line x1="324.8" y1="2874.55" x2="370.82" y2="2874.55" style="fill:none;stroke:#222221;stroke-miterlimit:10"/><path d="M324.89,2876.43a1.88,1.88,0,1,1,1.88-1.88A1.88,1.88,0,0,1,324.89,2876.43Z" style="fill:#222221"/><line x1="324.8" y1="1463.73" x2="370.82" y2="1463.73" style="fill:none;stroke:#222221;stroke-miterlimit:10"/><path d="M324.89,1465.61a1.88,1.88,0,1,1,1.88-1.88A1.88,1.88,0,0,1,324.89,1465.61Z" style="fill:#222221"/><line x1="324.8" y1="1091.86" x2="370.82" y2="1091.86" style="fill:none;stroke:#222221;stroke-miterlimit:10"/><path d="M324.89,1093.74a1.88,1.88,0,1,1,1.88-1.88A1.88,1.88,0,0,1,324.89,1093.74Z" style="fill:#222221"/><line x1="324.8" y1="1039.02" x2="370.82" y2="1039.02" style="fill:none;stroke:#222221;stroke-miterlimit:10"/><path d="M324.89,1040.9a1.88,1.88,0,1,1,1.88-1.88A1.88,1.88,0,0,1,324.89,1040.9Z" style="fill:#222221"/><line x1="324.8" y1="986.19" x2="370.82" y2="986.19" style="fill:none;stroke:#222221;stroke-miterlimit:10"/><path d="M324.89,988.07a1.88,1.88,0,1,1,1.88-1.88A1.88,1.88,0,0,1,324.89,988.07Z" style="fill:#222221"/><line x1="324.8" y1="842.78" x2="370.82" y2="842.78" style="fill:none;stroke:#222221;stroke-miterlimit:10"/><path d="M324.89,844.66a1.88,1.88,0,1,1,1.88-1.88A1.88,1.88,0,0,1,324.89,844.66Z" style="fill:#222221"/><line x1="354.82" y1="607.84" x2="390.97" y2="607.84" style="fill:none;stroke:#222221;stroke-miterlimit:10"/><path d="M354.91,609.72a1.88,1.88,0,1,1,1.88-1.88A1.88,1.88,0,0,1,354.91,609.72Z" style="fill:#222221"/><line x1="354.82" y1="413.68" x2="390.96" y2="413.68" style="fill:none;stroke:#222221;stroke-miterlimit:10"/><path d="M354.91,415.56a1.88,1.88,0,1,1,1.88-1.88A1.88,1.88,0,0,1,354.91,415.56Z" style="fill:#222221"/><line x1="354.82" y1="383.64" x2="390.96" y2="383.64" style="fill:none;stroke:#222221;stroke-miterlimit:10"/><path d="M354.91,385.52a1.88,1.88,0,1,1,1.88-1.88A1.88,1.88,0,0,1,354.91,385.52Z" style="fill:#222221"/><line x1="178.65" y1="540.31" x2="168" y2="540.31" style="fill:none;stroke:#222221;stroke-miterlimit:10"/><line x1="173.33" y1="370.65" x2="162.68" y2="370.65" style="fill:none;stroke:#222221;stroke-miterlimit:10"/><line x1="173.33" y1="203.84" x2="162.68" y2="203.84" style="fill:none;stroke:#222221;stroke-miterlimit:10"/><line x1="354.82" y1="357.5" x2="390.96" y2="357.5" style="fill:none;stroke:#222221;stroke-miterlimit:10"/><path d="M354.91,359.38a1.88,1.88,0,1,1,1.88-1.88A1.88,1.88,0,0,1,354.91,359.38Z" style="fill:#222221"/><line x1="354.82" y1="344.05" x2="390.96" y2="344.05" style="fill:none;stroke:#222221;stroke-miterlimit:10"/><path d="M354.91,345.93a1.88,1.88,0,1,1,1.88-1.88A1.88,1.88,0,0,1,354.91,345.93Z" style="fill:#222221"/><line x1="354.82" y1="257.62" x2="390.96" y2="257.62" style="fill:none;stroke:#222221;stroke-miterlimit:10"/><path d="M354.91,259.5a1.88,1.88,0,1,1,1.88-1.88A1.88,1.88,0,0,1,354.91,259.5Z" style="fill:#222221"/><line x1="354.82" y1="233.08" x2="390.96" y2="233.08" style="fill:none;stroke:#222221;stroke-miterlimit:10"/><path d="M354.91,235a1.88,1.88,0,1,1,1.88-1.88A1.88,1.88,0,0,1,354.91,235Z" style="fill:#222221"/><line x1="354.82" y1="219.88" x2="390.96" y2="219.88" style="fill:none;stroke:#222221;stroke-miterlimit:10"/><path d="M354.91,221.76a1.88,1.88,0,1,1,1.88-1.88A1.88,1.88,0,0,1,354.91,221.76Z" style="fill:#222221"/><line x1="354.82" y1="206.68" x2="390.96" y2="206.68" style="fill:none;stroke:#222221;stroke-miterlimit:10"/><path d="M354.91,208.56a1.88,1.88,0,1,1,1.88-1.88A1.88,1.88,0,0,1,354.91,208.56Z" style="fill:#222221"/><line x1="165.38" y1="755.65" x2="220" y2="789.34" style="fill:#f0f0f0"/><line x1="165.38" y1="755.65" x2="204.92" y2="780.04" style="fill:none;stroke:#474747;stroke-linejoin:round;stroke-width:2px"/><polygon points="198.5 782.9 220 789.35 204.6 773.01 198.5 782.9" style="fill:#474747"/><path d="M331.49,825.8v8.64H263.78V825.8h67.71m0-2H263.78a2,2,0,0,0-2,2v8.64a2,2,0,0,0,2,2h67.71a2,2,0,0,0,2-2V825.8a2,2,0,0,0-2-2Z" style="fill:#474747"/><text transform="translate(208.25 4405.53)" style="font-size:20px;fill:#111;font-family:Nunito-Regular, Nunito">66 million <tspan x="92.34" y="0" style="letter-spacing:-0.006005859375em">y</tspan><tspan x="102.5" y="0">ea</tspan><tspan x="123.64" y="0" style="letter-spacing:-0.00498046875em">r</tspan><tspan x="130.6" y="0">s ago</tspan><tspan x="-19.66" y="24">la</tspan><tspan x="-4.42" y="24" style="letter-spacing:-0.00498046875em">s</tspan><tspan x="5.08" y="24">t (non avian) dinosaur</tspan></text><text transform="translate(205.66 3720.22)" style="font-size:20px;fill:#111;font-family:Nunito-Regular, Nunito">~ 6 million <tspan x="97.52" y="0" style="letter-spacing:-0.006005859375em">y</tspan><tspan x="107.68" y="0">ea</tspan><tspan x="128.82" y="0" style="letter-spacing:-0.00498046875em">r</tspan><tspan x="135.78" y="0" style="letter-spacing:0.000048828125em">s ago</tspan><tspan x="-57.94" y="24">la</tspan><tspan x="-42.7" y="24" style="letter-spacing:-0.00498046875em">s</tspan><tspan x="-33.2" y="24">t common ance</tspan><tspan x="103.22" y="24" style="letter-spacing:-0.00498046875em">s</tspan><tspan x="112.72" y="24">tor with chimp</tspan></text><text transform="translate(183.42 4177.09)" style="font-size:20px;fill:#111;font-family:Nunito-Regular, Nunito">~ 25-66 million <tspan x="142" y="0" style="letter-spacing:-0.006005859375em">y</tspan><tspan x="152.16" y="0">ea</tspan><tspan x="173.3" y="0" style="letter-spacing:-0.00498046875em">r</tspan><tspan x="180.26" y="0">s ago</tspan><tspan x="-61.74" y="24">early mammals </tspan><tspan x="78.26" y="24" style="letter-spacing:-0.006982421875em">e</tspan><tspan x="88.66" y="24" style="letter-spacing:0.000048828125em">xpand into </tspan><tspan x="188.48" y="24" style="letter-spacing:-0.006005859375em">ev</tspan><tspan x="209.06" y="24">e</tspan><tspan x="219.6" y="24" style="letter-spacing:0.02998046875em">r</tspan><tspan x="227.26" y="24">y niche</tspan></text><text transform="translate(189.4 3948.66)" style="font-size:20px;fill:#111;font-family:Nunito-Regular, Nunito">~ 5-25 million <tspan x="130.04" y="0" style="letter-spacing:-0.006005859375em">y</tspan><tspan x="140.2" y="0" style="letter-spacing:-0.000048828125em">ea</tspan><tspan x="161.34" y="0" style="letter-spacing:-0.00498046875em">r</tspan><tspan x="168.3" y="0">s ago</tspan><tspan x="-56.87" y="24">apes split into many dif</tspan><tspan x="149.49" y="24" style="letter-spacing:-0.00498046875em">f</tspan><tspan x="155.95" y="24">e</tspan><tspan x="166.49" y="24" style="letter-spacing:-0.0099609375em">r</tspan><tspan x="173.35" y="24">ent species</tspan></text><circle cx="236.03" cy="139.43" r="11.04" style="fill:#474747"/><text transform="translate(250.05 145.2)" style="font-size:20px;fill:#474747;font-family:Nunito-Bold, Nunito;font-weight:700"><tspan xml:space="preserve"> = case </tspan><tspan x="69.14" y="0" style="letter-spacing:-0.005029296875em">s</tspan><tspan x="78.74" y="0">tudy</tspan></text><text transform="translate(73.99 1581.88)" style="font-size:20px;fill:#111;font-family:Nunito-Regular, Nunito">1 million</text><text transform="translate(73.99 2330.57)" style="font-size:20px;fill:#111;font-family:Nunito-Regular, Nunito">2 million</text><text transform="translate(374.97 2371.37)" style="font-size:16px;fill:#111;font-family:Nunito-Regular, Nunito">Beginning <tspan x="76.78" y="0" style="letter-spacing:-0.0009765625em">o</tspan><tspan x="85.65" y="0">f the</tspan><tspan x="0" y="19.2">genus </tspan><tspan x="47.68" y="19.2" style="font-family:Nunito-Italic, Nunito;font-style:italic">Homo</tspan></text><text transform="translate(379.15 1044.84)" style="font-size:16px;fill:#111;font-family:Nunito-Regular, Nunito">Fi<tspan x="12.62" y="0" style="letter-spacing:-0.0050048828125em">rs</tspan><tspan x="25.79" y="0">t Neande</tspan><tspan x="90.93" y="0" style="letter-spacing:0.0390625em">r</tspan><tspan x="97.2" y="0">thals</tspan></text><text transform="translate(124.77 924.43)" style="font-size:20px;fill:#111;font-family:Nunito-Bold, Nunito;font-weight:700">Middle<tspan x="0" y="24" style="letter-spacing:-0.01298828125em">P</tspan><tspan x="12.94" y="24">alaeolithic</tspan></text><text transform="translate(124.77 1014.56)" style="font-size:20px;fill:#111;font-family:Nunito-Bold, Nunito;font-weight:700"><tspan style="letter-spacing:-0.002978515625em">L</tspan><tspan x="11.04" y="0" style="letter-spacing:-0.0080078125em">ow</tspan><tspan x="39.34" y="0">er</tspan><tspan x="0" y="24" style="letter-spacing:-0.01298828125em">P</tspan><tspan x="12.94" y="24">alaeolithic</tspan></text><text transform="translate(124.77 853.59)" style="font-size:20px;fill:#111;font-family:Nunito-Bold, Nunito;font-weight:700">Upper<tspan x="0" y="24" style="letter-spacing:-0.01298828125em">P</tspan><tspan x="12.94" y="24">alaeolithic</tspan></text><text transform="translate(58.16 661.69)" style="font-size:16px;fill:#111;font-family:Nunito-Bold, Nunito;font-weight:700;letter-spacing:-0.01300048828125em">P<tspan x="10.35" y="0" style="letter-spacing:0.00006103515625em">alaeolithic</tspan></text><text transform="translate(379.13 1458.75)" style="font-size:16px;fill:#111;font-family:Nunito-Regular, Nunito"><tspan style="letter-spacing:-0.010009765625em">C</tspan><tspan x="10.67" y="0">ont</tspan><tspan x="34.08" y="0" style="letter-spacing:-0.010009765625em">r</tspan><tspan x="39.57" y="0">olled use</tspan><tspan x="0" y="19.2" style="letter-spacing:-0.0009765625em">o</tspan><tspan x="8.86" y="19.2">f fi</tspan><tspan x="27.18" y="19.2" style="letter-spacing:-0.010009765625em">r</tspan><tspan x="32.67" y="19.2">e widesp</tspan><tspan x="97.15" y="19.2" style="letter-spacing:-0.00994873046875em">r</tspan><tspan x="102.64" y="19.2">ead</tspan></text><text transform="translate(379.13 1096.26)" style="font-size:16px;fill:#111;font-family:Nunito-Regular, Nunito">Fi<tspan x="12.62" y="0" style="letter-spacing:-0.0050048828125em">rs</tspan><tspan x="25.79" y="0">t </tspan><tspan x="35.36" y="0" style="letter-spacing:-0.00604248046875em">w</tspan><tspan x="48.74" y="0" style="letter-spacing:0.00006103515625em">oolly mamm</tspan><tspan x="135.65" y="0" style="letter-spacing:-0.0009765625em">o</tspan><tspan x="144.51" y="0" style="letter-spacing:-0.00006103515625em">ths</tspan></text><text transform="translate(379.15 992.9)" style="font-size:16px;fill:#111;font-family:Nunito-Regular, Nunito">Fi<tspan x="12.62" y="0" style="letter-spacing:-0.0050048828125em">rs</tspan><tspan x="25.79" y="0">t Homo Sapiens</tspan></text><text transform="translate(379.13 848.96)" style="font-size:16px;fill:#111;font-family:Nunito-Regular, Nunito">La<tspan x="17.12" y="0" style="letter-spacing:-0.0050048828125em">s</tspan><tspan x="24.72" y="0" style="letter-spacing:0.00006103515625em">t Neande</tspan><tspan x="89.86" y="0" style="letter-spacing:0.03900146484375em">r</tspan><tspan x="96.13" y="0" style="letter-spacing:0.00006103515625em">thals</tspan></text><text transform="translate(386.04 2868.95)" style="font-size:18px;fill:#111;font-family:Nunito-Regular, Nunito"><tspan style="letter-spacing:-0.002983940972222222em">S</tspan><tspan x="11.05" y="0">tone tool</tspan><tspan x="0" y="21.6">use widesp</tspan><tspan x="91.28" y="21.6" style="letter-spacing:-0.009982638888888888em">r</tspan><tspan x="97.45" y="21.6">ead</tspan></text><text transform="translate(73.99 3082.96)" style="font-size:20px;fill:#111;font-family:Nunito-Regular, Nunito">3 million</text><text transform="translate(91.15 543.32)" style="font-size:16px;fill:#111;font-family:Nunito-Regular, Nunito">10,000</text><text transform="translate(394.41 611.48)" style="font-size:12px;fill:#111;font-family:Nunito-Regular, Nunito">Fi<tspan x="9.47" y="0" style="letter-spacing:-0.005045572916666667em">rs</tspan><tspan x="19.34" y="0">t </tspan><tspan x="26.52" y="0" style="letter-spacing:-0.004964192708333333em">f</tspan><tspan x="30.4" y="0">arme</tspan><tspan x="57.54" y="0" style="letter-spacing:-0.005045572916666667em">r</tspan><tspan x="61.72" y="0">s</tspan></text><text transform="translate(394.41 417.7)" style="font-size:12px;fill:#111;font-family:Nunito-Regular, Nunito"><tspan style="letter-spacing:-0.014973958333333334em">F</tspan><tspan x="6.5" y="0">arming comes to Britain</tspan></text><text transform="translate(394.41 388.06)" style="font-size:12px;fill:#111;font-family:Nunito-Regular, Nunito">G<tspan x="8.69" y="0" style="letter-spacing:-0.010009765625em">r</tspan><tspan x="12.8" y="0">eat </tspan><tspan x="32.66" y="0" style="letter-spacing:0.0009765625em">P</tspan><tspan x="40.42" y="0">y</tspan><tspan x="46.58" y="0" style="letter-spacing:-0.004069010416666667em">r</tspan><tspan x="50.77" y="0">amids </tspan><tspan x="85.98" y="0" style="letter-spacing:-0.0009765625em">o</tspan><tspan x="92.63" y="0">f Gi</tspan><tspan x="111.13" y="0" style="letter-spacing:-0.005045572916666667em">z</tspan><tspan x="117.11" y="0">a</tspan></text><text transform="translate(394.41 361.83)" style="font-size:12px;fill:#474747;font-family:Nunito-Regular, Nunito"><tspan style="letter-spacing:-0.0030110677083333335em">S</tspan><tspan x="7.37" y="0">tonehenge</tspan></text><text transform="translate(394.41 346.94)" style="font-size:12px;fill:#111;font-family:Nunito-Regular, Nunito">La<tspan x="12.84" y="0" style="letter-spacing:-0.004964192708333333em">s</tspan><tspan x="18.54" y="0">t </tspan><tspan x="25.72" y="0" style="letter-spacing:-0.005940755208333333em">w</tspan><tspan x="35.75" y="0">oolly mamm</tspan><tspan x="100.93" y="0" style="letter-spacing:-0.0009765625em">o</tspan><tspan x="107.58" y="0">th (Siberia)</tspan></text><text transform="translate(394.41 225.56)" style="font-size:12px;fill:#111;font-family:Nunito-Regular, Nunito">Hen<tspan x="22.24" y="0" style="letter-spacing:0.030029296875em">r</tspan><tspan x="26.83" y="0">y VIII</tspan><tspan x="53.6" y="0" style="letter-spacing:-0.029052734375em">’</tspan><tspan x="56" y="0" style="letter-spacing:0.00008138020833333333em">s </tspan><tspan x="64.86" y="0" style="letter-spacing:-0.010009765625em">r</tspan><tspan x="68.98" y="0" style="letter-spacing:-0.00008138020833333333em">eign</tspan></text><text transform="translate(394.41 238.49)" style="font-size:12px;fill:#111;font-family:Nunito-Regular, Nunito">Ba<tspan x="14.45" y="0" style="letter-spacing:0.0029296875em">t</tspan><tspan x="18.56" y="0">tle </tspan><tspan x="34.85" y="0" style="letter-spacing:-0.0010579427083333333em">o</tspan><tspan x="41.5" y="0" style="letter-spacing:0.00008138020833333333em">f Ha</tspan><tspan x="63.98" y="0" style="letter-spacing:-0.004964192708333333em">s</tspan><tspan x="69.68" y="0">tings</tspan></text><text transform="translate(394.41 262.28)" style="font-size:12px;fill:#111;font-family:Nunito-Regular, Nunito">Roman Britain</text><text transform="translate(394.41 211.62)" style="font-size:12px;fill:#111;font-family:Nunito-Regular, Nunito">Fi<tspan x="9.47" y="0" style="letter-spacing:-0.005045572916666667em">rs</tspan><tspan x="19.34" y="0">t and Second </tspan><tspan x="92.81" y="0" style="letter-spacing:-0.055989583333333336em">W</tspan><tspan x="105.35" y="0">orld </tspan><tspan x="129.11" y="0" style="letter-spacing:-0.055989583333333336em">W</tspan><tspan x="141.65" y="0" style="letter-spacing:-0.00008138020833333333em">a</tspan><tspan x="148.01" y="0" style="letter-spacing:-0.004964192708333333em">r</tspan><tspan x="152.18" y="0">s</tspan></text><text transform="translate(100.75 375.32)" style="font-size:16px;fill:#111;font-family:Nunito-Regular, Nunito">5,000</text><text transform="translate(59.94 206.68)" style="font-size:16px;fill:#111;font-family:Nunito-Regular, Nunito">0 <tspan x="13.73" y="0" style="letter-spacing:-0.0059814453125em">y</tspan><tspan x="21.86" y="0">ea</tspan><tspan x="38.77" y="0" style="letter-spacing:-0.0050048828125em">r</tspan><tspan x="44.34" y="0">s ago</tspan></text><text transform="translate(45.61 828.63)" style="font-size:20px;fill:#111;font-family:Nunito-Regular, Nunito">0 <tspan x="17.16" y="0" style="letter-spacing:-0.0060546875em">y</tspan><tspan x="27.32" y="0">ea</tspan><tspan x="48.46" y="0" style="letter-spacing:-0.004931640625em">r</tspan><tspan x="55.42" y="0">s ago</tspan></text><text transform="translate(159.02 60.95)" style="font-size:40px;fill:#474747;font-family:Nunito-Bold, Nunito;font-weight:700">Hidden De<tspan x="195.76" y="0" style="letter-spacing:-0.002978515625em">p</tspan><tspan x="219.68" y="0" style="letter-spacing:-0.0000244140625em">ths</tspan><tspan x="65.6" y="48">timeline</tspan></text><circle cx="286.57" cy="851.43" r="11.04" style="fill:#474747"/><text transform="translate(282.97 855.65)" style="font-size:12px;fill:#f0f0f0;font-family:Nunito-Regular, Nunito">2</text><circle cx="305.13" cy="1041.22" r="11.04" style="fill:#474747"/><text transform="translate(301.53 1045.45)" style="font-size:12px;fill:#f0f0f0;font-family:Nunito-Regular, Nunito">7</text><circle cx="305.13" cy="1210.29" r="11.04" style="fill:#474747"/><text transform="translate(301.53 1214.51)" style="font-size:12px;fill:#f0f0f0;font-family:Nunito-Regular, Nunito">9</text><circle cx="305.13" cy="938.33" r="11.04" style="fill:#474747"/><text transform="translate(297.93 942.56)" style="font-size:12px;fill:#f0f0f0;font-family:Nunito-Regular, Nunito">10</text><circle cx="305.13" cy="3077.56" r="11.04" style="fill:#474747"/><text transform="translate(301.53 3081.79)" style="font-size:12px;fill:#f0f0f0;font-family:Nunito-Regular, Nunito">8</text><circle cx="308.69" cy="846.77" r="11.04" style="fill:#474747"/><text transform="translate(305.09 851)" style="font-size:12px;fill:#f0f0f0;font-family:Nunito-Regular, Nunito">3</text><circle cx="298.74" cy="652.32" r="11.04" style="fill:#474747"/><text transform="translate(295.14 656.55)" style="font-size:12px;fill:#f0f0f0;font-family:Nunito-Regular, Nunito">4</text><circle cx="298.74" cy="563.39" r="11.04" style="fill:#474747"/><text transform="translate(295.14 567.61)" style="font-size:12px;fill:#f0f0f0;font-family:Nunito-Regular, Nunito">5</text><circle cx="298.74" cy="546.32" r="11.04" style="fill:#474747"/><text transform="translate(295.15 550.54)" style="font-size:12px;fill:#f0f0f0;font-family:Nunito-Regular, Nunito">6</text><circle cx="305.13" cy="1974.81" r="11.04" style="fill:#474747"/><text transform="translate(301.53 1979.03)" style="font-size:12px;fill:#f0f0f0;font-family:Nunito-Regular, Nunito">1</text><line x1="296.88" y1="830.66" x2="388.91" y2="821.2" style="fill:none;stroke:#222221;stroke-miterlimit:10"/><path d="M297.16,832.52a1.88,1.88,0,1,1,1.68-2.06A1.88,1.88,0,0,1,297.16,832.52Z" style="fill:#222221"/><circle cx="437.41" cy="821.2" r="11.04" style="fill:#474747"/><text transform="translate(433.81 825.42)" style="font-size:12px;fill:#f0f0f0;font-family:Nunito-Regular, Nunito">4</text><circle cx="413.11" cy="821.2" r="11.04" style="fill:#474747"/><text transform="translate(409.51 825.42)" style="font-size:12px;fill:#f0f0f0;font-family:Nunito-Regular, Nunito">5</text><circle cx="388.91" cy="821.2" r="11.04" style="fill:#474747"/><text transform="translate(385.31 825.42)" style="font-size:12px;fill:#f0f0f0;font-family:Nunito-Regular, Nunito">6</text></svg>
