<svg xmlns="http://www.w3.org/2000/svg" xmlns:xlink="http://www.w3.org/1999/xlink" viewBox="0 0 595.28 4782.96"><defs><style>.cls-1{fill:url(#linear-gradient);}.cls-2{mask:url(#mask);}.cls-15,.cls-18,.cls-19,.cls-20,.cls-3{fill:#111;}.cls-17,.cls-21,.cls-23,.cls-4{fill:#474747;}.cls-5,.cls-6,.cls-9{stroke:#474747;}.cls-12,.cls-13,.cls-5{stroke-miterlimit:10;}.cls-5{fill:url(#linear-gradient-2);}.cls-6,.cls-9{stroke-linejoin:round;stroke-width:2px;}.cls-6{fill:url(#linear-gradient-3);}.cls-7{fill:url(#linear-gradient-4);}.cls-24,.cls-8{fill:#f0f0f0;}.cls-12,.cls-13,.cls-9{fill:none;}.cls-10{fill:url(#linear-gradient-5);}.cls-11{fill:url(#linear-gradient-6);}.cls-12{stroke:#222221;}.cls-13{stroke:#111;stroke-width:40px;}.cls-14{fill:#222221;}.cls-15,.cls-17{font-size:20px;}.cls-15,.cls-17,.cls-18,.cls-19,.cls-20,.cls-21,.cls-23,.cls-24{font-family:ArialMT, Arial;}.cls-16{letter-spacing:-0.02em;}.cls-18{font-size:16px;}.cls-19{font-size:18px;}.cls-20,.cls-21,.cls-24{font-size:12px;}.cls-22{letter-spacing:-0.04em;}.cls-23{font-size:40px;}</style><linearGradient id="linear-gradient" x1="297.64" y1="4746.13" x2="297.64" y2="3118" gradientUnits="userSpaceOnUse"><stop offset="0" stop-color="#fff"/><stop offset="0.09" stop-color="#f8f8f8" stop-opacity="0.97"/><stop offset="0.22" stop-color="#e5e5e5" stop-opacity="0.9"/><stop offset="0.37" stop-color="#c6c6c6" stop-opacity="0.77"/><stop offset="0.54" stop-color="#9a9a9a" stop-opacity="0.6"/><stop offset="0.72" stop-color="#626262" stop-opacity="0.38"/><stop offset="0.92" stop-color="#1f1f1f" stop-opacity="0.12"/><stop offset="1" stop-opacity="0"/></linearGradient><mask id="mask" x="-0.47" y="3053.27" width="596.25" height="1732.27" maskUnits="userSpaceOnUse"><rect class="cls-1" y="3053.27" width="595.28" height="1729.69"/></mask><linearGradient id="linear-gradient-2" x1="271.64" y1="965.7" x2="271.64" y2="3200.19" gradientUnits="userSpaceOnUse"><stop offset="0" stop-color="#f0f0f0"/><stop offset="0.66" stop-color="#f2f2f2"/><stop offset="0.89" stop-color="#f9f9f9"/><stop offset="1" stop-color="#fff"/></linearGradient><linearGradient id="linear-gradient-3" x1="297.64" y1="182.27" x2="297.64" y2="824.8" gradientUnits="userSpaceOnUse"><stop offset="0.59" stop-color="#f0f0f0"/><stop offset="0.84" stop-color="#f2f2f2"/><stop offset="0.95" stop-color="#f9f9f9"/><stop offset="1" stop-color="#fff"/></linearGradient><linearGradient id="linear-gradient-4" x1="232.49" y1="668.94" x2="232.49" y2="204.09" gradientUnits="userSpaceOnUse"><stop offset="0" stop-color="#111"/><stop offset="0.09" stop-color="#111"/><stop offset="0.11" stop-color="#2a2a2a"/><stop offset="0.15" stop-color="#535353"/><stop offset="0.2" stop-color="#797979"/><stop offset="0.25" stop-color="#999"/><stop offset="0.3" stop-color="#b5b5b5"/><stop offset="0.36" stop-color="#cbcbcb"/><stop offset="0.44" stop-color="#dcdcdc"/><stop offset="0.53" stop-color="#e7e7e7"/><stop offset="0.65" stop-color="#eee"/><stop offset="1" stop-color="#f0f0f0"/></linearGradient><linearGradient id="linear-gradient-5" x1="305.99" y1="669.19" x2="305.99" y2="203.84" gradientUnits="userSpaceOnUse"><stop offset="0" stop-color="#6d8c4d"/><stop offset="0.18" stop-color="#5c806d"/><stop offset="0.37" stop-color="#4e7686"/><stop offset="0.56" stop-color="#456f98"/><stop offset="0.77" stop-color="#3f6ba3"/><stop offset="1" stop-color="#3d6aa6"/></linearGradient><linearGradient id="linear-gradient-6" x1="305.13" y1="3540" x2="305.13" y2="825.8" gradientUnits="userSpaceOnUse"><stop offset="0" stop-color="#fff"/><stop offset="0.18" stop-color="#efc30e"/><stop offset="0.34" stop-color="#efd20e"/><stop offset="0.41" stop-color="#eacf11"/><stop offset="0.49" stop-color="#dbc718"/><stop offset="0.58" stop-color="#c1b924"/><stop offset="0.68" stop-color="#9fa735"/><stop offset="0.78" stop-color="#728f4b"/><stop offset="0.79" stop-color="#6d8c4d"/><stop offset="0.88" stop-color="#6c8b4f"/><stop offset="0.92" stop-color="#688956"/><stop offset="0.95" stop-color="#628461"/><stop offset="0.97" stop-color="#597e72"/><stop offset="0.98" stop-color="#4d7588"/><stop offset="1" stop-color="#3f6ba3"/><stop offset="1" stop-color="#3d6aa6"/></linearGradient></defs><title>long</title><g id="Layer_9" data-name="Layer 9"><g class="cls-2"><image width="1240" height="3593" transform="translate(-0.47 3057.85) scale(0.48)" xlink:href="milky-way-2341762-edit.jpg"/></g></g><g id="print_and_web" data-name="print and web"><g id="paleolithic"><rect class="cls-3" x="263.78" y="832.24" width="15.72" height="23.71"/><rect class="cls-4" x="263.78" y="855.95" width="15.72" height="109.75"/><rect class="cls-5" x="263.78" y="965.7" width="15.72" height="2234.49"/></g><g id="image"><polygon class="cls-6" points="31.6 673.12 31.6 182.27 563.67 182.27 563.67 673.12 317.8 824.8 277.48 824.8 31.6 673.12"/><rect class="cls-7" x="220.88" y="204.09" width="23.22" height="464.85"/><path class="cls-4" d="M243.85,204.34V668.69H221.13V204.34h22.72m.5-.5H220.63V669.19h23.72V203.84Z"/><line class="cls-8" x1="429.89" y1="755.65" x2="375.27" y2="789.34"/><line class="cls-9" x1="429.89" y1="755.65" x2="390.35" y2="780.04"/><polygon class="cls-4" points="390.68 773.01 375.27 789.34 396.78 782.9 390.68 773.01"/><rect class="cls-10" x="241.25" y="203.84" width="129.49" height="465.35"/><rect class="cls-11" x="278.77" y="825.8" width="52.72" height="2714.21"/><line class="cls-12" x1="203.77" y1="1578.18" x2="173.33" y2="1578.18"/><line class="cls-12" x1="203.77" y1="824.08" x2="173.33" y2="824.08"/><line class="cls-12" x1="263.78" y1="844.09" x2="210.37" y2="844.09"/><line class="cls-12" x1="263.78" y1="910.82" x2="212.09" y2="910.82"/><line class="cls-12" x1="220.63" y1="657.52" x2="168.93" y2="657.52"/><line class="cls-12" x1="263.78" y1="1009.45" x2="212.09" y2="1009.45"/><line class="cls-12" x1="203.77" y1="2325.52" x2="173.33" y2="2325.52"/><line class="cls-12" x1="203.77" y1="3077.56" x2="173.33" y2="3077.56"/><line class="cls-13" x1="297.64" y1="3835.96" x2="297.64" y2="3787.96"/><polygon class="cls-3" points="337.52 3824.29 297.64 3893.36 257.75 3824.29 337.52 3824.29"/><line class="cls-13" x1="297.64" y1="3607.52" x2="297.64" y2="3559.52"/><polygon class="cls-3" points="337.52 3595.85 297.64 3664.93 257.75 3595.85 337.52 3595.85"/><line class="cls-13" x1="297.64" y1="4064.39" x2="297.64" y2="4016.4"/><polygon class="cls-3" points="337.52 4052.72 297.64 4121.8 257.75 4052.72 337.52 4052.72"/><line class="cls-13" x1="297.64" y1="4292.83" x2="297.64" y2="4244.84"/><polygon class="cls-3" points="337.52 4281.16 297.64 4350.24 257.75 4281.16 337.52 4281.16"/><line class="cls-12" x1="324.8" y1="2376.35" x2="370.82" y2="2376.35"/><path class="cls-14" d="M324.89,2378.23a1.88,1.88,0,1,1,1.88-1.88A1.88,1.88,0,0,1,324.89,2378.23Z"/><line class="cls-12" x1="324.8" y1="2874.55" x2="370.82" y2="2874.55"/><path class="cls-14" d="M324.89,2876.43a1.88,1.88,0,1,1,1.88-1.88A1.88,1.88,0,0,1,324.89,2876.43Z"/><line class="cls-12" x1="324.8" y1="1463.73" x2="370.82" y2="1463.73"/><path class="cls-14" d="M324.89,1465.61a1.88,1.88,0,1,1,1.88-1.88A1.88,1.88,0,0,1,324.89,1465.61Z"/><line class="cls-12" x1="324.8" y1="1091.86" x2="370.82" y2="1091.86"/><path class="cls-14" d="M324.89,1093.74a1.88,1.88,0,1,1,1.88-1.88A1.88,1.88,0,0,1,324.89,1093.74Z"/><line class="cls-12" x1="324.8" y1="1039.02" x2="370.82" y2="1039.02"/><path class="cls-14" d="M324.89,1040.9a1.88,1.88,0,1,1,1.88-1.88A1.88,1.88,0,0,1,324.89,1040.9Z"/><line class="cls-12" x1="324.8" y1="986.19" x2="370.82" y2="986.19"/><path class="cls-14" d="M324.89,988.07a1.88,1.88,0,1,1,1.88-1.88A1.88,1.88,0,0,1,324.89,988.07Z"/><line class="cls-12" x1="324.8" y1="842.78" x2="370.82" y2="842.78"/><path class="cls-14" d="M324.89,844.66a1.88,1.88,0,1,1,1.88-1.88A1.88,1.88,0,0,1,324.89,844.66Z"/><line class="cls-12" x1="354.82" y1="607.84" x2="390.97" y2="607.84"/><path class="cls-14" d="M354.91,609.72a1.88,1.88,0,1,1,1.88-1.88A1.88,1.88,0,0,1,354.91,609.72Z"/><line class="cls-12" x1="354.82" y1="413.68" x2="390.96" y2="413.68"/><path class="cls-14" d="M354.91,415.56a1.88,1.88,0,1,1,1.88-1.88A1.88,1.88,0,0,1,354.91,415.56Z"/><line class="cls-12" x1="354.82" y1="383.64" x2="390.96" y2="383.64"/><path class="cls-14" d="M354.91,385.52a1.88,1.88,0,1,1,1.88-1.88A1.88,1.88,0,0,1,354.91,385.52Z"/><line class="cls-12" x1="178.65" y1="540.31" x2="168" y2="540.31"/><line class="cls-12" x1="173.33" y1="370.65" x2="162.68" y2="370.65"/><line class="cls-12" x1="173.33" y1="203.84" x2="162.68" y2="203.84"/><line class="cls-12" x1="354.82" y1="357.5" x2="390.96" y2="357.5"/><path class="cls-14" d="M354.91,359.38a1.88,1.88,0,1,1,1.88-1.88A1.88,1.88,0,0,1,354.91,359.38Z"/><line class="cls-12" x1="354.82" y1="344.05" x2="390.96" y2="344.05"/><path class="cls-14" d="M354.91,345.93a1.88,1.88,0,1,1,1.88-1.88A1.88,1.88,0,0,1,354.91,345.93Z"/><line class="cls-12" x1="354.82" y1="257.62" x2="390.96" y2="257.62"/><path class="cls-14" d="M354.91,259.5a1.88,1.88,0,1,1,1.88-1.88A1.88,1.88,0,0,1,354.91,259.5Z"/><line class="cls-12" x1="354.82" y1="233.08" x2="390.96" y2="233.08"/><path class="cls-14" d="M354.91,235a1.88,1.88,0,1,1,1.88-1.88A1.88,1.88,0,0,1,354.91,235Z"/><line class="cls-12" x1="354.82" y1="219.88" x2="390.96" y2="219.88"/><path class="cls-14" d="M354.91,221.76a1.88,1.88,0,1,1,1.88-1.88A1.88,1.88,0,0,1,354.91,221.76Z"/><line class="cls-12" x1="354.82" y1="206.68" x2="390.96" y2="206.68"/><path class="cls-14" d="M354.91,208.56a1.88,1.88,0,1,1,1.88-1.88A1.88,1.88,0,0,1,354.91,208.56Z"/><line class="cls-8" x1="165.38" y1="755.65" x2="220" y2="789.34"/><line class="cls-9" x1="165.38" y1="755.65" x2="204.92" y2="780.04"/><polygon class="cls-4" points="198.5 782.9 220 789.35 204.6 773.01 198.5 782.9"/><path class="cls-4" d="M331.49,825.8v8.64H263.78V825.8h67.71m0-2H263.78a2,2,0,0,0-2,2v8.64a2,2,0,0,0,2,2h67.71a2,2,0,0,0,2-2V825.8a2,2,0,0,0-2-2Z"/></g><g id="text"><text class="cls-15" transform="translate(208.7 4405.53)">66 million years ago<tspan x="-20.57" y="24">last (non avian) dinosaur</tspan></text><text class="cls-15" transform="translate(205.65 3720.22)">~ 6 million years ago<tspan x="-55.84" y="24">last common ancestor with chimp</tspan></text><text class="cls-15" transform="translate(185.63 4177.09)">~ 25-66 million years ago<tspan x="-64.18" y="24">early mammals expand into every niche</tspan></text><text class="cls-15" transform="translate(191.19 3948.66)">~ 5-25 million years ago<tspan x="-57.35" y="24">apes split into many di</tspan><tspan class="cls-16" x="140.53" y="24">f</tspan><tspan x="145.73" y="24">ferent species</tspan></text><circle class="cls-4" cx="236.03" cy="139.43" r="11.04"/><text class="cls-17" transform="translate(250.05 145.2)"><tspan xml:space="preserve"> = case study</tspan></text><text class="cls-15" transform="translate(75.85 1581.88)">1 million</text><text class="cls-15" transform="translate(75.85 2330.57)">2 million</text><text class="cls-18" transform="translate(374.97 2371.37)">Beginning of the<tspan x="0" y="19.2">genus Homo</tspan></text><text class="cls-18" transform="translate(379.15 1044.84)">First Neanderthals</text><text class="cls-15" transform="translate(124.77 924.43)">Middle<tspan x="0" y="24">Palaeolithic</tspan></text><text class="cls-15" transform="translate(124.77 1014.56)">Lower<tspan x="0" y="24">Palaeolithic</tspan></text><text class="cls-15" transform="translate(124.77 853.59)">Upper<tspan x="0" y="24">Palaeolithic</tspan></text><text class="cls-18" transform="translate(60.99 661.69)">Palaeolithic</text><text class="cls-18" transform="translate(379.13 1458.75)">Controlled use<tspan x="0" y="19.2">of fire widespread</tspan></text><text class="cls-18" transform="translate(379.13 1096.26)">First woolly mammoths</text><text class="cls-18" transform="translate(379.15 992.9)">First Homo Sapiens</text><text class="cls-18" transform="translate(379.13 848.96)">Last Neanderthals</text><text class="cls-19" transform="translate(386.04 2868.95)">Stone tool<tspan x="0" y="21.6">use widespread</tspan></text><text class="cls-15" transform="translate(75.85 3082.96)">3 million</text><text class="cls-18" transform="translate(93.88 543.32)">10,000</text><text class="cls-20" transform="translate(394.41 611.48)">First farmers</text><text class="cls-20" transform="translate(394.41 417.7)">Farming comes to Britain</text><text class="cls-20" transform="translate(394.41 388.06)">Great Pyramids of Giza</text><text class="cls-21" transform="translate(394.41 361.83)">Stonehenge</text><text class="cls-20" transform="translate(394.41 346.94)">Last woolly mammoth (Siberia)</text><text class="cls-20" transform="translate(394.41 225.56)">Henry VIII<tspan class="cls-16" x="53.35" y="0">’</tspan><tspan x="55.8" y="0">s reign</tspan></text><text class="cls-20" transform="translate(394.41 238.49)">Battle of Hastings</text><text class="cls-20" transform="translate(394.41 262.28)">Roman Britain</text><text class="cls-20" transform="translate(394.41 211.62)">First and Second <tspan class="cls-16" x="94.05" y="0">W</tspan><tspan x="105.16" y="0">orld </tspan><tspan class="cls-22" x="128.5" y="0">W</tspan><tspan x="139.38" y="0">ars</tspan></text><text class="cls-18" transform="translate(102.78 375.32)">5,000</text><text class="cls-18" transform="translate(59.21 206.68)">0 years ago</text><text class="cls-15" transform="translate(45.61 828.63)">0 years ago</text><text class="cls-23" transform="translate(165.33 60.95)">Hidden Depths<tspan x="63.39" y="48">timeline</tspan></text><circle class="cls-4" cx="286.57" cy="851.43" r="11.04"/><text class="cls-24" transform="translate(283.23 855.65)">2</text><circle class="cls-4" cx="305.13" cy="1041.22" r="11.04"/><text class="cls-24" transform="translate(301.79 1045.45)">7</text><circle class="cls-4" cx="305.13" cy="1210.29" r="11.04"/><text class="cls-24" transform="translate(301.79 1214.51)">9</text><circle class="cls-4" cx="305.13" cy="938.33" r="11.04"/><text class="cls-24" transform="translate(298.46 942.56)">10</text><circle class="cls-4" cx="305.13" cy="3077.56" r="11.04"/><text class="cls-24" transform="translate(301.79 3081.79)">8</text><circle class="cls-4" cx="308.69" cy="846.77" r="11.04"/><text class="cls-24" transform="translate(305.35 851)">3</text><circle class="cls-4" cx="298.74" cy="652.32" r="11.04"/><text class="cls-24" transform="translate(295.41 656.55)">4</text><circle class="cls-4" cx="298.74" cy="563.39" r="11.04"/><text class="cls-24" transform="translate(295.41 567.61)">5</text><circle class="cls-4" cx="298.74" cy="546.32" r="11.04"/><text class="cls-24" transform="translate(295.41 550.54)">6</text><circle class="cls-4" cx="305.13" cy="1974.81" r="11.04"/><text class="cls-24" transform="translate(301.79 1979.03)">1</text><line class="cls-12" x1="296.88" y1="830.66" x2="388.91" y2="821.2"/><path class="cls-14" d="M297.16,832.52a1.88,1.88,0,1,1,1.68-2.06A1.88,1.88,0,0,1,297.16,832.52Z"/><circle class="cls-4" cx="437.41" cy="821.2" r="11.04"/><text class="cls-24" transform="translate(434.07 825.42)">4</text><circle class="cls-4" cx="413.11" cy="821.2" r="11.04"/><text class="cls-24" transform="translate(409.77 825.42)">5</text><circle class="cls-4" cx="388.91" cy="821.2" r="11.04"/><text class="cls-24" transform="translate(385.57 825.42)">6</text></g></g></svg>
